<mxfile host="Electron" agent="Mozilla/5.0 (Windows NT 10.0; Win64; x64) AppleWebKit/537.36 (KHTML, like Gecko) draw.io/26.2.15 Chrome/134.0.6998.205 Electron/35.2.1 Safari/537.36" version="26.2.15">
  <diagram name="第 1 页" id="9URGveauMFmTgsy8M-oq">
    <mxGraphModel dx="3565" dy="2123" grid="1" gridSize="10" guides="1" tooltips="1" connect="1" arrows="1" fold="1" page="1" pageScale="1" pageWidth="827" pageHeight="1169" math="0" shadow="0">
      <root>
        <mxCell id="0" />
        <mxCell id="1" parent="0" />
        <mxCell id="THR8hS14KNwyzQwgHOoK-8" style="edgeStyle=orthogonalEdgeStyle;rounded=0;orthogonalLoop=1;jettySize=auto;html=1;entryX=0.5;entryY=0;entryDx=0;entryDy=0;strokeWidth=3;flowAnimation=1;" edge="1" parent="1" source="THR8hS14KNwyzQwgHOoK-1" target="THR8hS14KNwyzQwgHOoK-2">
          <mxGeometry relative="1" as="geometry" />
        </mxCell>
        <mxCell id="THR8hS14KNwyzQwgHOoK-1" value="&lt;div style=&quot;line-height: 190%;&quot;&gt;&lt;font style=&quot;font-size: 27px;&quot;&gt;&lt;font style=&quot;&quot;&gt;sBlockOfCode&lt;/font&gt; = &lt;font style=&quot;color: rgb(255, 0, 0);&quot;&gt;public&lt;/font&gt; void doSomething(String s){&lt;/font&gt;&lt;div&gt;&lt;font style=&quot;font-size: 27px;&quot;&gt;System.out.println(s);&lt;/font&gt;&lt;/div&gt;&lt;div&gt;&lt;font style=&quot;font-size: 27px;&quot;&gt;}&lt;/font&gt;&lt;/div&gt;&lt;div&gt;&lt;font style=&quot;font-size: 27px; color: rgb(255, 0, 0);&quot;&gt;public多余&lt;/font&gt;&lt;/div&gt;&lt;/div&gt;" style="rounded=1;whiteSpace=wrap;html=1;sketch=1;curveFitting=1;jiggle=2;fontColor=default;align=center;" vertex="1" parent="1">
          <mxGeometry x="65" y="20" width="620" height="130" as="geometry" />
        </mxCell>
        <mxCell id="THR8hS14KNwyzQwgHOoK-9" value="" style="edgeStyle=orthogonalEdgeStyle;rounded=0;orthogonalLoop=1;jettySize=auto;html=1;strokeWidth=3;flowAnimation=1;" edge="1" parent="1" source="THR8hS14KNwyzQwgHOoK-2" target="THR8hS14KNwyzQwgHOoK-3">
          <mxGeometry relative="1" as="geometry" />
        </mxCell>
        <mxCell id="THR8hS14KNwyzQwgHOoK-2" value="&lt;div style=&quot;line-height: 190%;&quot;&gt;&lt;font style=&quot;font-size: 27px;&quot;&gt;&lt;font style=&quot;&quot;&gt;sBlockOfCode&lt;/font&gt; = void &lt;font style=&quot;color: rgb(255, 0, 0);&quot;&gt;doSomething&lt;/font&gt;(String s){&lt;/font&gt;&lt;div&gt;&lt;font style=&quot;font-size: 27px;&quot;&gt;System.out.println(s);&lt;/font&gt;&lt;/div&gt;&lt;div&gt;&lt;font style=&quot;font-size: 27px;&quot;&gt;}&lt;/font&gt;&lt;/div&gt;&lt;div&gt;&lt;font style=&quot;font-size: 27px; color: rgb(255, 0, 0);&quot;&gt;函数名称多余，因为已经赋值给&lt;/font&gt;&lt;span style=&quot;font-size: 27px; background-color: transparent;&quot;&gt;&lt;font style=&quot;color: light-dark(rgb(255, 0, 0), rgb(255, 255, 255));&quot;&gt;sBlockOfCode&lt;/font&gt;&lt;/span&gt;&lt;/div&gt;&lt;/div&gt;" style="rounded=1;whiteSpace=wrap;html=1;sketch=1;curveFitting=1;jiggle=2;fontColor=default;align=center;" vertex="1" parent="1">
          <mxGeometry x="65" y="230" width="620" height="130" as="geometry" />
        </mxCell>
        <mxCell id="THR8hS14KNwyzQwgHOoK-10" value="" style="edgeStyle=orthogonalEdgeStyle;rounded=0;orthogonalLoop=1;jettySize=auto;html=1;strokeWidth=3;flowAnimation=1;" edge="1" parent="1" source="THR8hS14KNwyzQwgHOoK-3" target="THR8hS14KNwyzQwgHOoK-4">
          <mxGeometry relative="1" as="geometry" />
        </mxCell>
        <mxCell id="THR8hS14KNwyzQwgHOoK-3" value="&lt;div style=&quot;line-height: 190%;&quot;&gt;&lt;font style=&quot;font-size: 27px;&quot;&gt;&lt;font style=&quot;&quot;&gt;sBlockOfCode&lt;/font&gt; = &lt;font style=&quot;color: rgb(255, 0, 0);&quot;&gt;void&lt;/font&gt; (String s){&lt;/font&gt;&lt;div&gt;&lt;font style=&quot;font-size: 27px;&quot;&gt;System.out.println(s);&lt;/font&gt;&lt;/div&gt;&lt;div&gt;&lt;font style=&quot;font-size: 27px;&quot;&gt;}&lt;/font&gt;&lt;/div&gt;&lt;div&gt;&lt;font style=&quot;font-size: 27px; color: rgb(255, 0, 0);&quot;&gt;void多余，因为编译器可以自己判断返回值类型&lt;/font&gt;&lt;/div&gt;&lt;/div&gt;" style="rounded=1;whiteSpace=wrap;html=1;sketch=1;curveFitting=1;jiggle=2;fontColor=default;align=center;" vertex="1" parent="1">
          <mxGeometry x="65" y="440" width="620" height="130" as="geometry" />
        </mxCell>
        <mxCell id="THR8hS14KNwyzQwgHOoK-11" value="" style="edgeStyle=orthogonalEdgeStyle;rounded=0;orthogonalLoop=1;jettySize=auto;html=1;strokeWidth=3;flowAnimation=1;" edge="1" parent="1" source="THR8hS14KNwyzQwgHOoK-4" target="THR8hS14KNwyzQwgHOoK-5">
          <mxGeometry relative="1" as="geometry" />
        </mxCell>
        <mxCell id="THR8hS14KNwyzQwgHOoK-4" value="&lt;div style=&quot;line-height: 190%;&quot;&gt;&lt;font style=&quot;font-size: 27px;&quot;&gt;&lt;font style=&quot;&quot;&gt;sBlockOfCode&lt;/font&gt; =&amp;nbsp;(&lt;font style=&quot;color: rgb(255, 0, 0);&quot;&gt;String&lt;/font&gt; s){&lt;/font&gt;&lt;div&gt;&lt;font style=&quot;font-size: 27px;&quot;&gt;System.out.println(s);&lt;/font&gt;&lt;/div&gt;&lt;div&gt;&lt;font style=&quot;font-size: 27px;&quot;&gt;}&lt;/font&gt;&lt;/div&gt;&lt;div&gt;&lt;font style=&quot;font-size: 27px; color: rgb(255, 0, 0);&quot;&gt;String多余，因为编译器可以判断参数类型&lt;/font&gt;&lt;/div&gt;&lt;/div&gt;" style="rounded=1;whiteSpace=wrap;html=1;sketch=1;curveFitting=1;jiggle=2;fontColor=default;align=center;" vertex="1" parent="1">
          <mxGeometry x="64" y="640" width="620" height="130" as="geometry" />
        </mxCell>
        <mxCell id="THR8hS14KNwyzQwgHOoK-12" value="" style="edgeStyle=orthogonalEdgeStyle;rounded=0;orthogonalLoop=1;jettySize=auto;html=1;strokeWidth=3;flowAnimation=1;" edge="1" parent="1" source="THR8hS14KNwyzQwgHOoK-5" target="THR8hS14KNwyzQwgHOoK-6">
          <mxGeometry relative="1" as="geometry" />
        </mxCell>
        <mxCell id="THR8hS14KNwyzQwgHOoK-5" value="&lt;div style=&quot;line-height: 190%;&quot;&gt;&lt;font style=&quot;font-size: 27px;&quot;&gt;&lt;font style=&quot;&quot;&gt;sBlockOfCode&lt;/font&gt; =&amp;nbsp;(s)&lt;font style=&quot;color: rgb(255, 0, 0);&quot;&gt;{&lt;/font&gt;&lt;/font&gt;&lt;div&gt;&lt;font style=&quot;font-size: 27px;&quot;&gt;System.out.println(s);&lt;/font&gt;&lt;/div&gt;&lt;div&gt;&lt;font style=&quot;font-size: 27px; color: rgb(255, 0, 0);&quot;&gt;}&lt;/font&gt;&lt;/div&gt;&lt;div&gt;&lt;font style=&quot;font-size: 27px; color: rgb(255, 0, 0);&quot;&gt;只有一行，所以可以不加大括号&lt;/font&gt;&lt;/div&gt;&lt;/div&gt;" style="rounded=1;whiteSpace=wrap;html=1;sketch=1;curveFitting=1;jiggle=2;fontColor=default;align=center;" vertex="1" parent="1">
          <mxGeometry x="65" y="840" width="620" height="130" as="geometry" />
        </mxCell>
        <mxCell id="THR8hS14KNwyzQwgHOoK-13" value="" style="edgeStyle=orthogonalEdgeStyle;rounded=0;orthogonalLoop=1;jettySize=auto;html=1;flowAnimation=1;strokeWidth=3;" edge="1" parent="1" source="THR8hS14KNwyzQwgHOoK-6" target="THR8hS14KNwyzQwgHOoK-7">
          <mxGeometry relative="1" as="geometry" />
        </mxCell>
        <mxCell id="THR8hS14KNwyzQwgHOoK-6" value="&lt;div style=&quot;line-height: 190%;&quot;&gt;&lt;font style=&quot;font-size: 27px;&quot;&gt;&lt;font style=&quot;&quot;&gt;sBlockOfCode&lt;/font&gt; =&amp;nbsp;(s)&lt;/font&gt;&lt;div&gt;&lt;font style=&quot;font-size: 27px;&quot;&gt;System.out.println(s);&lt;/font&gt;&lt;/div&gt;&lt;div&gt;&lt;br&gt;&lt;/div&gt;&lt;div&gt;&lt;font style=&quot;font-size: 27px; color: rgb(255, 0, 0);&quot;&gt;在参数和函数之间加上一个箭头符号&quot;-&amp;gt;&quot;&lt;/font&gt;&lt;/div&gt;&lt;/div&gt;" style="rounded=1;whiteSpace=wrap;html=1;sketch=1;curveFitting=1;jiggle=2;fontColor=default;align=center;" vertex="1" parent="1">
          <mxGeometry x="65" y="1030" width="620" height="110" as="geometry" />
        </mxCell>
        <mxCell id="THR8hS14KNwyzQwgHOoK-7" value="&lt;div style=&quot;line-height: 190%;&quot;&gt;&lt;font style=&quot;font-size: 30px;&quot;&gt;&lt;font style=&quot;&quot;&gt;&lt;font style=&quot;&quot;&gt;sBlockOfCode&lt;/font&gt; =&amp;nbsp;(s) -&amp;gt;&lt;/font&gt;&amp;nbsp;System.out.println(s);&lt;/font&gt;&lt;div&gt;&lt;br&gt;&lt;/div&gt;&lt;/div&gt;" style="rounded=1;whiteSpace=wrap;html=1;sketch=1;curveFitting=1;jiggle=2;fontColor=default;align=center;" vertex="1" parent="1">
          <mxGeometry x="70" y="1200" width="610" height="90" as="geometry" />
        </mxCell>
      </root>
    </mxGraphModel>
  </diagram>
</mxfile>
